<svg id="SvgjsSvg1001" width="288" height="288" xmlns="http://www.w3.org/2000/svg" version="1.1" xmlns:xlink="http://www.w3.org/1999/xlink" xmlns:svgjs="http://svgjs.com/svgjs"><path id="SvgjsPath1056" d="M 144,0 C 5,0 0,5 0,144 0,283 5,288 144,288 283,288 288,283 288,144 288,5 283,0 144,0 Z" transform="matrix(0.74,0,0,0.74,37.44,37.44)" fill="#ffffff"></path><defs id="SvgjsDefs1002"></defs><g id="SvgjsG1008" transform="matrix(1,0,0,1,0,0)"><svg xmlns="http://www.w3.org/2000/svg" viewBox="0 0 32 32" width="288" height="288"><defs><linearGradient id="a" x1="151.63" x2="158.64" y1="182.93" y2="182.93" gradientTransform="matrix(.18117 0 0 .19025 -.07 -30.032)" gradientUnits="userSpaceOnUse"><stop offset="0" stop-color="#075fa8" class="svgShape stopColor075fa8-2"></stop><stop offset="1" stop-color="#54c5d7" class="svgShape stopColor54c5d7-3"></stop></linearGradient><linearGradient id="b" x1="28.99" x2="168.46" y1="245.45" y2="245.45" gradientTransform="matrix(.18117 0 0 .19025 -.07 -30.032)" gradientUnits="userSpaceOnUse"><stop offset="0" stop-color="#2b3784" class="svgShape stopColor2b3784-5"></stop><stop offset="1"></stop></linearGradient><linearGradient id="c" x1="6.06" x2="132.95" y1="239.24" y2="239.24" gradientTransform="matrix(.18117 0 0 .19025 -.07 -30.032)" gradientUnits="userSpaceOnUse"><stop offset="0" stop-color="#075fa8" class="svgShape stopColor075fa8-8"></stop><stop offset="1" stop-color="#54c5d7" class="svgShape stopColor54c5d7-9"></stop></linearGradient><linearGradient id="d" x1="6.3" x2="133.18" y1="239.32" y2="239.32" gradientTransform="matrix(.18117 0 0 .19025 -.07 -30.032)" gradientUnits="userSpaceOnUse"><stop offset="0" stop-color="#075fa8" class="svgShape stopColor075fa8-11"></stop><stop offset="1" stop-color="#54c5d7" class="svgShape stopColor54c5d7-12"></stop></linearGradient><linearGradient id="e" x1="24.01" x2="60.43" y1="257.27" y2="257.27" gradientTransform="matrix(.18117 0 0 .19025 -.07 -30.032)" gradientUnits="userSpaceOnUse"><stop offset="0" stop-color="#075fa8" class="svgShape stopColor075fa8-14"></stop><stop offset="1" stop-color="#54c5d7" class="svgShape stopColor54c5d7-15"></stop></linearGradient><linearGradient id="f" x1="79.1" x2="116.17" y1="290.11" y2="290.11" gradientTransform="matrix(.18117 0 0 .19025 -.07 -30.032)" gradientUnits="userSpaceOnUse"><stop offset="0" stop-color="#075fa8" class="svgShape stopColor075fa8-17"></stop><stop offset="1" stop-color="#54c5d7" class="svgShape stopColor54c5d7-18"></stop></linearGradient><linearGradient id="g" x1="116.75" x2="127.55" y1="299.66" y2="299.66" gradientTransform="matrix(.18117 0 0 .19025 -.07 -30.032)" gradientUnits="userSpaceOnUse"><stop offset="0" stop-color="#075fa8" class="svgShape stopColor075fa8-20"></stop><stop offset="1" stop-color="#54c5d7" class="svgShape stopColor54c5d7-21"></stop></linearGradient><linearGradient id="h" x1="118.27" x2="126.09" y1="299.63" y2="299.63" gradientTransform="matrix(.18117 0 0 .19025 -.07 -30.032)" gradientUnits="userSpaceOnUse"><stop offset="0" stop-color="#075fa8" class="svgShape stopColor075fa8-23"></stop><stop offset="1" stop-color="#54c5d7" class="svgShape stopColor54c5d7-24"></stop></linearGradient><linearGradient id="i" x1="128.26" x2="145.7" y1="303.46" y2="303.46" gradientTransform="matrix(.18117 0 0 .19025 -.07 -30.032)" gradientUnits="userSpaceOnUse"><stop offset="0" stop-color="#075fa8" class="svgShape stopColor075fa8-26"></stop><stop offset="1" stop-color="#54c5d7" class="svgShape stopColor54c5d7-27"></stop></linearGradient></defs><path fill="url(#a)" d="M28.035 4.105c.352 0 .633.297.633.665 0 .367-.281.668-.633.668-.351 0-.633-.301-.633-.668s.282-.665.633-.665m0 0" class="svgShape colorgradient-28 selectable"></path><path fill="url(#b)" d="M30.406 16.223q-2.613.023-5.226.043h-.051q.024.974.043 1.941.011.318.015.637l2.106-.035q-.007.104-.02.226-.009.066-.02.137a6.8 6.8 0 0 1-.355 1.433c-.703 1.895-2.078 2.899-2.863 3.473a9.8 9.8 0 0 1-4.164 1.715q-.03.004-.058.008-.188.03-.372.047-.482.057-.918.062a7 7 0 0 1-.636-.008 9.3 9.3 0 0 1-2.606-.476 10.4 10.4 0 0 1-2.023-.965c-.063-.04-.13-.078-.192-.121-.011-.004-.02-.012-.03-.016l-.298-.203q-.165-.111-.336-.234-.112-.093-.23-.18l-.027-.023a9.573 9.573 0 0 1-1.383-1.328l-.258-.31a.1.1 0 0 0-.02-.026q-.082-.105-.16-.215c-.008-.008-.011-.016-.02-.024a9.4 9.4 0 0 1-.847-1.43 8 8 0 0 1-.273-.644 9 9 0 0 1-.204-.59c-.19-.637-.761-2.594-.16-4.922a8.7 8.7 0 0 1 1.313-2.816 8 8 0 0 1 .629-.793c1.394-1.582 3.304-2.664 5.277-3.043q.208-.036.418-.066a8.4 8.4 0 0 1 2.055-.04c.422.04.836.11 1.25.215.14.032.285.07.425.114l.047.011q.183.058.368.121a9.95 9.95 0 0 1 3.394 2.043H24l.047.047q.661.612 1.23 1.352.004.001.008.008.19.247.367.511 1.354-.55 2.707-1.113a13 13 0 0 0-2.738-3.36 12.5 12.5 0 0 0-2.91-1.866l-.047-.024q-.298-.135-.613-.258c-.012-.008-.028-.011-.04-.015a6 6 0 0 0-.437-.16 10 10 0 0 0-.75-.235c-3.488-.953-6.336-.035-6.965.18-3.457 1.183-5.425 3.68-6.207 4.832-.207.308-.683 1.012-1.164 2.012-.343.71-.687 1.574-.933 2.55q-.13.503-.22 1.047a11 11 0 0 0-.151 2.063q.01.481.062.98a11 11 0 0 0 .36 1.809 10.6 10.6 0 0 0 1.539 3.203q.005.01.011.02c.09.124.18.25.274.367a11.3 11.3 0 0 0 1.308 1.425l.02.02c.097.094.199.18.297.262q.07.064.14.12c.086.075.176.145.262.216q.013.009.02.02h.003c.06.046.114.089.172.132a15 15 0 0 0 2.391 1.484c3.039 1.555 6.004 1.524 8.16 1.133.09-.015.18-.035.27-.05l.324-.071a14.3 14.3 0 0 0 2.422-.773q.075-.034.14-.063.134-.06.286-.125.162-.076.343-.16c.078-.04.164-.078.25-.121 1.387-.684 3.274-1.875 4.649-4.203 1.718-2.907 1.61-5.836 1.52-6.914m-8.34 11.492c-.39 0-.707-.332-.707-.742s.317-.743.707-.743c.391 0 .707.332.707.743 0 .41-.316.742-.707.742m0 0" class="svgShape colorgradient-29 selectable"></path><path d="M10.977 25.445h-.055q-.02-.001-.031.004-.03.007-.059.02a.4.4 0 0 0-.055.027q-.021.013-.05.031a.3.3 0 0 1-.051.04 715.215 715.215 0 0 0-.062.043q-.031.022-.067.046c-.024.012-.047.028-.07.04q-.036.022-.07.038-.036.022-.071.043h-.016q.005-.006.016-.011l.07-.04q.036-.021.07-.042.037-.022.075-.043l.066-.047q.016-.012.031-.024c.008-.008.02-.011.028-.02.015-.015.035-.027.05-.038q.028-.019.055-.032a.4.4 0 0 1 .055-.027.2.2 0 0 1 .062-.012h.047-.004.032Zm0 0" fill="#000000" class="svgShape color000000-30 selectable"></path><path fill="url(#c)" d="m23.914 9.563-.828-2.676-.668-2.203c-.285.328-.457.62-.688.937l-2.066 2.875c-.18.246-.289.527-.355.844l1.195-.031a11 11 0 0 1-.527 1.625c-.918 2.18-2.067 4.207-3.547 6.02a19 19 0 0 1-1.742 1.894c-2.622 2.472-5.739 4.422-9.25 5.082-1.102.203-2.547.062-3.239-.985-.773-1.183-.172-2.472.39-3.597-1.503 1.222-2.034 3.355-1.085 5.101.332.61.875.98 1.492 1.211.59.219 1.2.27 1.828.297a9.2 9.2 0 0 0 2.836-.312c4.059-1.079 7.653-3.84 10.195-7.297.454-.618 1.395-2.012 1.649-2.817-.05.254-.129.594-.254.985-.844 2.66-2.762 4.226-4.969 5.984-.836.664-1.883 1.488-3.453 2.297a18.4 18.4 0 0 1-3.41 1.351c-.215.043-.426.082-.645.114l.176.011c1.106.067 2.102-.234 3.176-.52a1 1 0 0 1 .281-.026q.036-.02.07-.043a.7.7 0 0 0 .141-.09l.031-.02q.014-.012.028-.023c.015-.012.035-.024.05-.04q.028-.012.055-.03l.055-.024q.032-.011.062-.016h.016c-.023 0-.043-.007-.066-.011 4.78-2.02 8.418-6.067 10.507-11 .653-1.54 1.043-3.106 1.31-4.782a13 13 0 0 1 1.355.383c-.028-.133-.06-.324-.106-.472Zm0 0" class="svgShape colorgradient-31 selectable"></path><path d="M19.496 27.39c-2.863.337-5.703-.214-8.172-1.788a1.3 1.3 0 0 0-.406-.157q-.017.002-.027.004-.03.007-.059.02a.4.4 0 0 0-.055.027q-.021.013-.05.031a.3.3 0 0 1-.051.04 715.215 715.215 0 0 0-.062.043q-.031.022-.067.046c-.024.012-.047.028-.07.04q-.028.017-.055.034c.23.012.45.11.656.243 2.965 1.863 6.453 2.433 9.781 1.496l-.105-.227Zm0 0" fill="#000000" class="svgShape color000000-32 selectable"></path><path fill="#979797" d="M19.54 27.406c-2.864.336-5.704-.215-8.173-1.789a1.2 1.2 0 0 0-.46-.168h-.016q-.03.007-.059.02a.4.4 0 0 0-.055.027q-.021.013-.05.031a.3.3 0 0 1-.051.04 715.215 715.215 0 0 0-.062.043q-.031.022-.067.046c-.024.012-.047.028-.07.04q-.036.022-.07.038c.25 0 .488.106.718.25 2.965 1.864 6.453 2.438 9.777 1.496l-.105-.226-1.258.148Zm0 0" class="svgShape color979797-33 selectable"></path><path fill="url(#d)" d="m23.957 9.574-.828-2.672-.668-2.207c-.285.328-.457.621-.688.942l-2.066 2.87c-.176.25-.285.528-.352.845l1.192-.028a11 11 0 0 1-.527 1.621c-.918 2.184-2.063 4.207-3.547 6.024a19 19 0 0 1-1.743 1.894c-2.625 2.469-5.742 4.422-9.25 5.082-1.101.207-2.55.063-3.234-.984-.777-1.184-.176-2.473.387-3.602-1.5 1.227-2.035 3.36-1.086 5.106.332.61.875.976 1.492 1.21.59.22 1.2.27 1.832.302a9.1 9.1 0 0 0 2.832-.317c4.059-1.078 7.656-3.84 10.2-7.293.476-.648 1.495-2.168 1.683-2.945l-.844 1.273a21 21 0 0 1-2.355 2.961c-2.313 2.418-4.852 4.274-7.969 5.367-1.14.399-2.246.582-3.441.579-.707 0-1.38-.043-2.028-.344a2.61 2.61 0 0 1-1.523-1.988c-.098-.649-.09-1.32.168-1.934-.125 1.078.203 2.023 1.07 2.574 2.137 1.363 6.074-.344 8.078-1.539a22.6 22.6 0 0 0 5.34-4.406c1.898-2.14 3.285-4.438 4.379-7.113.125-.313.664-1.68.441-1.875-.035-.032-.132-.051-.187-.051h-.844l1.438-2.008 1.011-1.375 1.207 3.898-.937-.214c-.063-.012-.2.066-.207.14-.156 1.063-.352 2.051-.664 3.086-.672 2.242-1.735 4.3-3.078 6.18-2.887 4.02-7.078 6.922-11.817 7.644 1.176.11 2.219-.207 3.348-.507a.8.8 0 0 1 .219-.028c.007-.004.011-.008.02-.012q.034-.02.07-.043.034-.021.07-.042a1 1 0 0 0 .07-.047q.016-.012.031-.024c.008-.008.02-.012.028-.02.015-.015.035-.027.05-.038q.028-.019.055-.032.025-.017.055-.027a.2.2 0 0 1 .062-.012h-.007c4.78-2.02 8.418-6.066 10.507-11.004.649-1.535 1.04-3.101 1.309-4.777.465.102.879.223 1.352.383-.024-.133-.055-.324-.102-.473Zm0 0" class="svgShape colorgradient-34 selectable"></path><path fill="url(#e)" d="M4.598 16.164q-.024.019-.047.043l-.02.02-.023.023-.047.047c-.031.035-.063.066-.09.101q-.016.023-.039.051a.2.2 0 0 0-.027.051c0 .004-.004.008-.004.016q.001.001-.004.007v.008l-.012.028q-.001.005-.008.011a23.6 23.6 0 0 0 3.926 3.45l2.344 1.644.332-.273-2.594-1.899c-1.336-.976-2.52-2.094-3.687-3.328m0 0" class="svgShape colorgradient-35 selectable"></path><path fill="#979797" d="M17.148 6.656c-1.32.54-2.562 1.153-3.843 1.79-1.895.94-3.594 2.152-5.211 3.546-1.352 1.168-2.59 2.367-3.781 3.813a.357.357 0 0 1-.047.082l-.036.05c-.011.016-.027.032-.039.047q-.02.024-.043.047-.02.02-.043.043c-.011.012-.027.028-.039.043a.05.05 0 0 0-.02.02q-.01.012-.023.02-.018.016-.03.027c-1.786 2.937-1.298 5.234 1.034 7.503.336.016.68-.027 1.004-.132-2.41-1.793-3.39-4.153-1.765-7l.004.004q0-.006.003-.012l.012-.031.012-.032c.008-.015.02-.03.027-.047q.013-.016.02-.027c.008-.008.011-.015.02-.023q.043-.052.09-.098l.046-.047.023-.023q.01-.012.02-.024c.016-.011.031-.027.05-.039l-.007-.008c.414-.32.73-.675 1.074-1.046 2.41-2.625 5.89-5.477 9.13-6.813.323-.133.655-.23.991-.309l.024-.035q.022-.034.047-.062a1 1 0 0 1 .082-.106l.043-.047q.022-.023.046-.043a.1.1 0 0 1 .051-.023q.005-.005.016-.004a21.4 21.4 0 0 1 3.469-1.363l1.48-.442c.09-.09.184-.242.25-.394-1.426.32-2.785.648-4.14 1.2Zm0 0" class="svgShape color979797-36 selectable"></path><path fill="#979797" d="M16.059 7.676a.07.07 0 0 0-.036.023.2.2 0 0 0-.043.043q-.02.024-.043.047c-.011.02-.027.031-.039.05l-.046.06c-.016.023-.032.042-.043.066q-.004.006-.008.012c.84-.188 1.71-.223 2.578-.176l1.223.058c.125-.156.222-.285.32-.441-1.328-.043-2.54.113-3.863.258m0 0" class="svgShape color979797-37 selectable"></path><path fill="#2b3784" d="M19.96 10.117c-3.148-.824-6.339-.14-8.23 2.77-1.52 2.336-1.18 5.48.504 7.593.11-.05.22-.14.239-.21-.446-.637-.883-1.235-1.043-2.051l.511.43c.325.265.696.449 1.07.644l.259.441.484-.414-.473-.265a8.4 8.4 0 0 1-.504-2.625h1.938l.144 1.777c.118-.05.282-.2.274-.316l-.102-1.461 1.406.015c.079-.086.157-.195.25-.343l-1.656-.016c-.011-1.07.055-2.066.227-3.102.015-.09.113-.242.195-.246l1.695-.133.02 1.555c.004.387.031.723.09 1.125l.277-.41-.062-2.277 1.367.054.125-.3-1.477-.086-.004-2.094c.899.094 1.383.71 1.825 1.473.066-.043.222-.301.168-.399-.188-.336-.399-.547-.66-.855.324-.004.59.113.949.246.09-.164.156-.328.195-.52m-7.507 5.98-1.308.005c.027-1.07.636-1.934 1.574-2.422-.145.812-.285 1.53-.266 2.418m.402 2.739c-.972-.414-1.66-1.313-1.714-2.406l1.3-.008c.063.808.207 1.566.414 2.414m-.187-5.488c-.445.242-.781.515-1.18.879.285-1.286 1.739-2.864 2.938-3.344-.625.617-1.121 1.25-1.41 2.082a.75.75 0 0 1-.348.383m2.047 2.738-1.91.016c-.067-.899.066-1.801.343-2.672.582-.309 1.184-.457 1.829-.586-.188 1.113-.293 2.133-.262 3.242m.418-3.793a.6.6 0 0 1-.153.238l-1.632.414c.453-1.222 1.449-2.215 2.71-2.55-.453.605-.8 1.16-.925 1.898m2.027-.027-1.746.164a4.2 4.2 0 0 1 .621-1.504c.3-.356.61-.645 1.13-.742v2.082ZM22.71 11.586c-.05.156-.081.27-.085.379.688.61 1.21 1.379 1.46 2.312-.452-.406-.862-.738-1.374-1-.152-.082-.25-.195-.352-.382-.109.148-.183.351-.113.527.348.848.453 1.742.484 2.664l-1.699.008c-.07.105-.12.207-.172.332l1.868.004a10.5 10.5 0 0 1-.254 2.402c-.051.191-.153.332-.332.387-.575.176-1.13.304-1.739.41.082-.867.172-1.649.176-2.527-.27.168-.328.421-.336.71a18 18 0 0 1-.172 1.899l-1.363.078c-.094.059-.203.191-.289.328.527.04.996-.023 1.562-.07-.277 1.21-.73 2.48-2.128 2.543l-.079-1.695c-.125.078-.304.242-.3.343l.054 1.356c-.367-.09-.68-.25-1.007-.442l-.637.559c1.035.32 2.078.297 3.133.156 2.007-.273 4.117-1.52 5.09-3.406 1.34-2.61.777-6.027-1.395-7.875m-.023 2.082c.407.156.739.434 1.047.742.407.457.668.973.707 1.672l-1.378.016a13.3 13.3 0 0 0-.375-2.43m1.762 2.762c-.008 1.082-.683 2.008-1.652 2.425.148-.855.234-1.582.246-2.421h1.406Zm-4.11 3.547 1.849-.403c-.2.574-.512 1.028-.868 1.485-.55.601-1.195 1.117-2.062 1.3.765-.988.734-1.234 1.082-2.382m2.536.617c-.574.562-1.203 1.039-1.965 1.312.793-.746 1.38-1.55 1.7-2.59.6-.242 1.066-.636 1.581-1.086-.203.95-.71 1.704-1.316 2.364m0 0" class="svgShape color2b3784-38 selectable"></path><path fill="url(#f)" d="M20.902 26.797c-1.289-.469-2.523-.89-3.742-1.496l-2.898-1.438.238-.336c1.777.985 3.598 1.79 5.48 2.54l.997.398-.07.332Zm0 0" class="svgShape colorgradient-39 selectable"></path><path fill="#979797" d="m23.27 26.684-.133-.336a15.7 15.7 0 0 0 4.593-3.645c.68-.789 1.18-1.629 1.63-2.574-.215.933-.657 1.723-1.192 2.473-1.27 1.734-3.016 3.07-4.898 4.082M8.223 22.86l-.399.156-.61-.957a9.1 9.1 0 0 1-1.343-3.54l.512.419c.285 1.468.992 2.718 1.84 3.921m0 0" class="svgShape color979797-40 selectable"></path><path fill="url(#g)" d="M22.813 26.32c-.227-.289-.575-.37-.891-.332a.94.94 0 0 0-.73.504c-.239.434-.067 1.028.292 1.29.422.308.953.245 1.282-.126.324-.363.379-.918.047-1.336m-.747 1.395c-.39 0-.707-.332-.707-.742s.317-.743.707-.743c.391 0 .707.332.707.743 0 .41-.316.742-.707.742m0 0" class="svgShape colorgradient-41 selectable"></path><path fill="url(#h)" d="M22.773 26.973c0 .41-.316.742-.707.742s-.707-.332-.707-.742.317-.743.707-.743c.391 0 .707.332.707.743m0 0" class="svgShape colorgradient-42 selectable"></path><path fill="#979797" d="M27.066 4.723c-1.367.039-2.617.23-3.937.465l-.098-.258c1.262-.215 2.5-.367 3.797-.375.125 0 .238.054.238.168M6.152 17.305c-.648-.364-.343-1.13-.433-1.93l.449-.46-.016 2.386Zm0 0" class="svgShape color979797-43 selectable"></path><path fill="url(#i)" d="M26.328 28.152c-.348.047-2.933-.511-3.152-.722-.031-.028.039-.196.094-.18l3.058.906Zm0 0" class="svgShape colorgradient-44 selectable"></path><path d="m10.336 21.797-.297.148-.21-.457Zm0 0" fill="#000000" class="svgShape color000000-45 selectable"></path></svg></g></svg>