<?xml version="1.0" encoding="UTF-8"?>
<svg id="Layer_1" xmlns="http://www.w3.org/2000/svg" baseProfile="tiny" version="1.2" xmlns:xlink="http://www.w3.org/1999/xlink" viewBox="0 0 500 500">
  <!-- Generator: Adobe Illustrator 30.2.1, SVG Export Plug-In . SVG Version: 2.1.1 Build 1)  -->
  <defs>
    <linearGradient id="linear-gradient" x1="151.63" y1="182.93" x2="158.64" y2="182.93" gradientUnits="userSpaceOnUse">
      <stop offset="0" stop-color="#075fa8"/>
      <stop offset="1" stop-color="#54c5d7"/>
    </linearGradient>
    <linearGradient id="linear-gradient1" x1="28.99" y1="245.45" x2="168.46" y2="245.45" gradientUnits="userSpaceOnUse">
      <stop offset="0" stop-color="#2b3784"/>
      <stop offset="1" stop-color="#000"/>
    </linearGradient>
    <linearGradient id="linear-gradient2" x1="6.06" y1="239.24" x2="132.95" y2="239.24" xlink:href="#linear-gradient"/>
    <linearGradient id="linear-gradient3" x1="6.3" y1="239.32" x2="133.18" y2="239.32" xlink:href="#linear-gradient"/>
    <linearGradient id="linear-gradient4" x1="24.01" y1="257.27" x2="60.43" y2="257.27" xlink:href="#linear-gradient"/>
    <linearGradient id="linear-gradient5" x1="79.1" y1="290.11" x2="116.17" y2="290.11" xlink:href="#linear-gradient"/>
    <linearGradient id="linear-gradient6" x1="116.75" y1="299.66" x2="127.55" y2="299.66" xlink:href="#linear-gradient"/>
    <linearGradient id="linear-gradient7" x1="118.27" y1="299.63" x2="126.09" y2="299.63" xlink:href="#linear-gradient"/>
    <linearGradient id="linear-gradient8" x1="128.26" y1="303.46" x2="145.7" y2="303.46" xlink:href="#linear-gradient"/>
    <linearGradient id="linear-gradient9" x1="198.45" y1="204.52" x2="222.98" y2="204.52" xlink:href="#linear-gradient1"/>
    <linearGradient id="linear-gradient10" x1="229.98" y1="204.49" x2="258.52" y2="204.49" xlink:href="#linear-gradient1"/>
    <linearGradient id="linear-gradient11" x1="262.87" y1="204.2" x2="306.88" y2="204.2" xlink:href="#linear-gradient1"/>
    <linearGradient id="linear-gradient12" x1="310.12" y1="204.49" x2="354.83" y2="204.49" xlink:href="#linear-gradient1"/>
    <linearGradient id="linear-gradient13" x1="359.72" y1="204.49" x2="405.14" y2="204.49" xlink:href="#linear-gradient1"/>
    <linearGradient id="linear-gradient14" x1="409.91" y1="204.49" x2="452.8" y2="204.49" xlink:href="#linear-gradient1"/>
    <linearGradient id="linear-gradient15" x1="452.39" y1="204.2" x2="496.4" y2="204.2" xlink:href="#linear-gradient1"/>
    <linearGradient id="linear-gradient16" x1="224.95" y1="262.3" x2="267.26" y2="262.3" gradientUnits="userSpaceOnUse">
      <stop offset="0" stop-color="#075fa8"/>
      <stop offset="1" stop-color="#1572b3"/>
    </linearGradient>
    <linearGradient id="linear-gradient17" x1="271.08" y1="262.33" x2="299.68" y2="262.33" xlink:href="#linear-gradient16"/>
    <linearGradient id="linear-gradient18" x1="354.16" y1="262.3" x2="386.46" y2="262.3" xlink:href="#linear-gradient16"/>
    <linearGradient id="linear-gradient19" x1="389.05" y1="261.98" x2="433.06" y2="261.98" xlink:href="#linear-gradient16"/>
    <linearGradient id="linear-gradient20" x1="436.3" y1="262.33" x2="464.89" y2="262.33" xlink:href="#linear-gradient16"/>
    <linearGradient id="linear-gradient21" x1="330.79" y1="276.72" x2="351.7" y2="276.72" xlink:href="#linear-gradient1"/>
    <linearGradient id="linear-gradient22" x1="304.97" y1="258.97" x2="350.14" y2="258.97" xlink:href="#linear-gradient16"/>
    <linearGradient id="linear-gradient23" x1="300.73" y1="263.75" x2="333.81" y2="263.75" xlink:href="#linear-gradient1"/>
    <linearGradient id="linear-gradient24" x1="302.04" y1="271.41" x2="340.57" y2="271.41" xlink:href="#linear-gradient16"/>
    <linearGradient id="linear-gradient25" x1="317.98" y1="263.25" x2="324.68" y2="263.25" xlink:href="#linear-gradient16"/>
    <linearGradient id="linear-gradient26" x1="409.94" y1="306.99" x2="434.52" y2="306.99" xlink:href="#linear-gradient1"/>
    <linearGradient id="linear-gradient27" x1="266.83" y1="311.27" x2="282.19" y2="311.27" xlink:href="#linear-gradient1"/>
    <linearGradient id="linear-gradient28" x1="394.37" y1="309.78" x2="409.27" y2="309.78" xlink:href="#linear-gradient1"/>
    <linearGradient id="linear-gradient29" x1="304.27" y1="309.28" x2="318.89" y2="309.28" xlink:href="#linear-gradient1"/>
    <linearGradient id="linear-gradient30" x1="285.26" y1="308.98" x2="296.66" y2="308.98" xlink:href="#linear-gradient1"/>
    <linearGradient id="linear-gradient31" x1="256.84" y1="311.46" x2="266.43" y2="311.46" xlink:href="#linear-gradient1"/>
    <linearGradient id="linear-gradient32" x1="328.56" y1="307.88" x2="337.76" y2="307.88" xlink:href="#linear-gradient1"/>
    <linearGradient id="linear-gradient33" x1="237.13" y1="307.91" x2="246.33" y2="307.91" xlink:href="#linear-gradient1"/>
    <linearGradient id="linear-gradient34" x1="374.76" y1="308.99" x2="386.13" y2="308.99" xlink:href="#linear-gradient1"/>
    <linearGradient id="linear-gradient35" x1="387.23" y1="307.94" x2="393.88" y2="307.94" xlink:href="#linear-gradient1"/>
    <linearGradient id="linear-gradient36" x1="341.04" y1="307.92" x2="347.5" y2="307.92" xlink:href="#linear-gradient1"/>
    <linearGradient id="linear-gradient37" x1="297.39" y1="307.94" x2="305.15" y2="307.94" xlink:href="#linear-gradient1"/>
    <linearGradient id="linear-gradient38" x1="249.92" y1="307.98" x2="256.55" y2="307.98" xlink:href="#linear-gradient1"/>
    <linearGradient id="linear-gradient39" x1="357.07" y1="309.4" x2="363.25" y2="309.4" xlink:href="#linear-gradient1"/>
    <linearGradient id="linear-gradient40" x1="347.13" y1="309.41" x2="353.37" y2="309.41" xlink:href="#linear-gradient1"/>
    <linearGradient id="linear-gradient41" x1="367.15" y1="309.35" x2="371.44" y2="309.35" xlink:href="#linear-gradient1"/>
    <linearGradient id="linear-gradient42" x1="353.18" y1="308.5" x2="357.23" y2="308.5" xlink:href="#linear-gradient1"/>
    <linearGradient id="linear-gradient43" x1="319.23" y1="308.46" x2="323.24" y2="308.46" xlink:href="#linear-gradient1"/>
    <linearGradient id="linear-gradient44" x1="362.99" y1="309.29" x2="367.53" y2="309.29" xlink:href="#linear-gradient1"/>
    <linearGradient id="linear-gradient45" x1="322.96" y1="312.3" x2="325.3" y2="312.3" xlink:href="#linear-gradient1"/>
  </defs>
  <g>
    <rect x="151.63" y="179.43" width="7" height="7" rx="3.5" ry="3.5" fill="url(#linear-gradient)"/>
    <path d="M168.22,243.12c-9.62.08-19.24.16-28.86.23h-.27c.08,3.41.17,6.81.24,10.21.03,1.11.06,2.23.08,3.34,3.88-.06,7.75-.12,11.63-.18-.03.37-.07.76-.12,1.18-.03.23-.06.48-.1.73h0c-.3,2.1-.86,4.7-1.97,7.53-3.88,9.96-11.46,15.23-15.81,18.26-2.38,1.65-10.66,7.12-22.98,9-.11.02-.22.03-.32.05-.69.1-1.37.19-2.04.25h-.01c-1.76.2-3.46.3-5.07.33h0c-1.22.03-2.39.01-3.51-.05-7.09-.29-12.3-1.83-14.38-2.5-1.23-.39-5.72-1.91-11.17-5.08-.34-.2-.7-.41-1.05-.62-.06-.04-.12-.07-.17-.1-.55-.34-1.09-.69-1.65-1.05-.61-.4-1.22-.81-1.84-1.25-.43-.31-.85-.62-1.28-.94-.05-.04-.1-.07-.15-.11-.61-.46-1.22-.94-1.83-1.44-1.98-1.63-3.95-3.47-5.81-5.55-.48-.53-.95-1.07-1.41-1.63-.04-.05-.08-.09-.12-.14-.3-.37-.59-.74-.88-1.12-.04-.04-.07-.09-.1-.13-.7-.91-1.37-1.86-2.02-2.85-.96-1.47-1.85-3.02-2.67-4.67-.54-1.09-1.05-2.21-1.51-3.38-.41-1.01-.78-2.04-1.12-3.11-1.06-3.33-4.2-13.62-.88-25.87,1.47-5.41,3.98-10.39,7.25-14.79,1.06-1.46,2.22-2.85,3.46-4.17,7.7-8.31,18.24-14.01,29.14-15.99.77-.14,1.53-.26,2.3-.36h.01c3.78-.51,7.58-.57,11.33-.21h0c2.32.22,4.62.59,6.89,1.13.79.18,1.58.38,2.37.61.08.02.16.04.24.06.68.2,1.37.41,2.04.64,5.39,1.79,10.53,4.46,15.21,7.9,1.21.9,2.38,1.83,3.53,2.82h.01c.09.1.18.17.27.25,2.43,2.14,4.7,4.52,6.79,7.1.01.01.02.03.03.04.7.88,1.38,1.78,2.04,2.71,4.98-1.95,9.96-3.9,14.94-5.86-2.74-4.59-7.48-11.33-15.12-17.65-2.06-1.7-6.14-4.86-12.02-7.9h-.01c-1.26-.66-2.61-1.31-4.04-1.93-.08-.04-.16-.08-.25-.11h-.01c-1.08-.48-2.21-.94-3.38-1.37-.07-.03-.15-.06-.22-.08-.78-.3-1.59-.58-2.41-.84-1.33-.44-2.7-.85-4.13-1.22-19.25-5.01-34.98-.2-38.45.93-19.09,6.22-29.94,19.34-34.25,25.4-1.15,1.62-3.79,5.32-6.44,10.58-1.89,3.74-3.78,8.27-5.15,13.4-.48,1.77-.89,3.6-1.21,5.51h0c-.39,2.25-.66,4.58-.78,6.99-.06,1.26-.08,2.54-.05,3.84.03,1.69.14,3.41.35,5.16.31,2.72.84,5.5,1.63,8.34.11.4.22.79.34,1.18h0c1.99,6.56,5.01,12.13,8.49,16.82.02.04.05.07.08.11.49.66.99,1.31,1.5,1.93,1.77,2.18,3.62,4.14,5.5,5.92.57.54,1.14,1.06,1.72,1.57.04.04.08.07.12.11.54.48,1.09.94,1.63,1.38.26.21.51.42.77.63.48.39.97.76,1.45,1.13.04.03.08.06.12.1h.01c.32.24.63.47.95.7,5.62,4.11,10.68,6.58,13.2,7.8,16.78,8.17,33.14,8,45.03,5.95.5-.08.99-.17,1.49-.27.59-.11,1.19-.24,1.79-.36,6.28-1.35,10.99-3.1,13.37-4.07.29-.12.55-.23.77-.32.5-.21,1.03-.44,1.59-.67.6-.26,1.23-.54,1.88-.83.45-.2.92-.42,1.39-.64,7.65-3.6,18.06-9.85,25.66-22.09,9.48-15.27,8.89-30.68,8.39-36.35ZM122.18,303.54c-2.16,0-3.91-1.75-3.91-3.91s1.75-3.91,3.91-3.91,3.91,1.75,3.91,3.91-1.75,3.91-3.91,3.91Z" fill="url(#linear-gradient1)"/>
    <path d="M60.97,291.6s-.02,0-.03,0c-.02,0-.04,0-.06,0-.01,0-.03,0-.04,0-.02,0-.03,0-.05,0-.01,0-.03,0-.04,0-.03,0-.06,0-.09,0-.06,0-.12.01-.17.03-.11.02-.22.05-.32.09-.1.04-.2.09-.29.14-.1.05-.19.11-.28.18-.1.07-.19.13-.29.2-.05.04-.1.07-.15.11-.06.04-.12.08-.19.12-.12.08-.25.15-.38.23-.13.07-.25.15-.38.22-.13.07-.25.14-.38.21-.13.07-.26.14-.39.21,0,0-.01,0-.01,0-.01,0-.02,0-.04,0s-.02,0-.04,0c0,0-.01,0-.01,0,.03-.02.06-.04.1-.05.13-.07.26-.14.39-.22.13-.07.26-.14.39-.22.13-.07.26-.15.39-.23.13-.08.26-.16.38-.24.06-.04.11-.08.17-.12.05-.04.1-.07.15-.11.09-.07.19-.13.29-.2.09-.06.19-.12.29-.17.1-.05.2-.09.31-.13.11-.04.22-.06.34-.07.06,0,.13-.01.19-.01.02,0,.05,0,.07,0,0,0,0,0,0,0,0,0,0,0,0,0,0,0-.01,0-.02,0,0,0,.01,0,.02,0h0s0,0-.01,0c0,0,0,0,0,0,0,0,.01,0,.02,0,0,0,0,0,0,0,.05,0,.09,0,.14,0,0,0,0,0,0,0Z"/>
    <path d="M132.38,208.11l-4.58-14.05-3.68-11.59c-1.57,1.72-2.53,3.27-3.79,4.94l-11.41,15.1c-.98,1.3-1.59,2.77-1.95,4.43l6.58-.15c-.84,3.12-1.64,5.67-2.9,8.53-5.07,11.47-11.41,22.11-19.58,31.65-3.08,3.59-6.09,6.8-9.62,9.96-14.47,12.98-31.68,23.24-51.06,26.7-6.08,1.08-14.06.33-17.86-5.17-4.28-6.22-.96-13,2.14-18.92-8.29,6.43-11.23,17.65-5.98,26.82,1.83,3.2,4.82,5.15,8.23,6.36,3.25,1.16,6.62,1.43,10.1,1.58,5.39.24,10.4-.34,15.64-1.66,22.4-5.66,42.25-20.18,56.28-38.34,2.5-3.24,7.7-10.59,9.09-14.82-.27,1.34-.7,3.13-1.39,5.18-4.66,13.98-15.25,22.21-27.43,31.45-4.62,3.5-10.4,7.84-19.05,12.09-6.88,3.38-13.32,5.6-18.83,7.09-1.18.23-2.36.43-3.55.6.32.03.64.05.96.06,6.11.35,11.61-1.23,17.52-2.72.53-.14,1.05-.17,1.57-.15,0,0,0,0,0,0,.13-.07.26-.14.39-.22.13-.07.26-.15.39-.23.13-.08.26-.16.38-.24.06-.04.11-.08.17-.12.05-.04.1-.07.15-.11.09-.07.19-.13.29-.2.09-.06.19-.12.29-.17.1-.05.2-.09.31-.13.11-.04.22-.06.34-.07.03,0,.05,0,.08,0-.12-.02-.23-.05-.36-.07,26.39-10.62,46.47-31.88,58-57.83,3.59-8.08,5.75-16.31,7.23-25.12,2.56.54,4.86,1.18,7.47,2.02-.15-.7-.32-1.71-.57-2.49Z" fill="url(#linear-gradient2)"/>
    <path d="M108,301.82c-15.82,1.77-31.49-1.13-45.12-9.39-.72-.43-1.39-.65-2.24-.82-.05,0-.1.01-.15.02-.11.02-.22.05-.32.09-.1.04-.2.09-.29.14-.1.05-.19.11-.28.18-.1.07-.19.13-.29.2-.05.04-.1.07-.15.11-.06.04-.12.08-.19.12-.12.08-.25.15-.38.23-.13.07-.25.15-.38.22-.1.06-.2.11-.3.17,1.27.08,2.47.59,3.63,1.28,16.36,9.79,35.61,12.8,53.97,7.87l-.57-1.2-6.94.78Z"/>
    <path d="M108.24,301.9c-15.82,1.77-31.49-1.13-45.12-9.39-.81-.49-1.53-.7-2.54-.89-.03,0-.06,0-.09.01-.11.02-.22.05-.32.09-.1.04-.2.09-.29.14-.1.05-.19.11-.28.18-.1.07-.19.13-.29.2-.05.04-.1.07-.15.11-.06.04-.12.08-.19.12-.12.08-.25.15-.38.23-.13.07-.25.15-.38.22-.13.07-.25.14-.38.21,0,0,0,0-.01,0,1.39,0,2.7.54,3.97,1.3,16.36,9.79,35.61,12.81,53.96,7.87l-.57-1.2-6.94.78Z" fill="#979797"/>
    <path d="M132.62,208.18l-4.57-14.05-3.68-11.59c-1.58,1.71-2.53,3.26-3.8,4.94l-11.41,15.1c-.98,1.3-1.58,2.77-1.95,4.43l6.58-.15c-.84,3.12-1.64,5.67-2.9,8.53-5.07,11.47-11.4,22.11-19.58,31.66-3.08,3.59-6.09,6.8-9.62,9.96-14.48,12.98-31.69,23.24-51.06,26.7-6.08,1.09-14.07.33-17.86-5.17-4.28-6.21-.96-12.99,2.14-18.92-8.28,6.43-11.23,17.65-5.98,26.82,1.83,3.2,4.82,5.15,8.23,6.37,3.26,1.16,6.62,1.42,10.11,1.58,5.39.24,10.4-.34,15.64-1.66,22.4-5.66,42.25-20.18,56.28-38.34,2.64-3.41,8.26-11.38,9.29-15.47l-4.64,6.69c-3.9,5.61-8.14,10.73-13,15.56-12.78,12.72-26.79,22.47-44,28.21-6.29,2.1-12.4,3.06-18.98,3.04-3.91,0-7.61-.23-11.2-1.8-4.4-1.92-7.62-5.65-8.4-10.45-.55-3.41-.51-6.95.93-10.16-.7,5.66,1.11,10.63,5.89,13.53,11.8,7.16,33.53-1.82,44.6-8.1,10.98-6.23,20.88-13.94,29.47-23.15,10.48-11.25,18.14-23.34,24.16-37.4.7-1.64,3.67-8.83,2.45-9.85-.19-.16-.74-.26-1.03-.26h-4.66s7.92-10.57,7.92-10.57l5.59-7.22,6.66,20.5-5.17-1.14c-.34-.07-1.09.35-1.15.74-.85,5.59-1.94,10.78-3.65,16.22-3.72,11.79-9.57,22.61-17,32.48-15.93,21.13-39.06,36.38-65.23,40.18,6.49.58,12.26-1.09,18.48-2.66.41-.1.81-.15,1.21-.15.04-.02.08-.05.12-.07.13-.07.26-.14.39-.22.13-.07.26-.15.39-.23.13-.08.26-.16.38-.24.06-.04.11-.08.17-.12.05-.04.1-.07.15-.11.09-.07.19-.13.29-.2.09-.06.19-.12.29-.17.1-.05.2-.09.31-.13.11-.04.22-.06.34-.07,0,0,0,0,0,0-.02,0-.03,0-.05,0,26.39-10.62,46.48-31.88,58-57.83,3.59-8.08,5.75-16.31,7.23-25.12,2.56.54,4.86,1.18,7.47,2.02-.15-.7-.31-1.71-.57-2.49Z" fill="url(#linear-gradient3)"/>
    <path d="M25.77,242.81c-.09.07-.18.15-.27.23-.04.04-.07.07-.11.11-.04.04-.09.08-.13.12-.09.08-.17.17-.26.25-.17.17-.33.34-.49.52-.07.09-.14.17-.21.27-.06.08-.11.17-.15.27-.01.02-.02.05-.03.08,0,.01,0,.03-.01.04,0,.01-.01.03-.02.04-.02.05-.04.11-.06.16,0,.02-.02.04-.03.06,6.74,7.01,13.8,12.87,21.66,18.12l12.94,8.65,1.83-1.44-14.32-9.98c-7.36-5.13-13.9-11.01-20.34-17.5Z" fill="url(#linear-gradient4)"/>
    <path d="M95.04,192.84c-7.29,2.84-14.14,6.05-21.21,9.4-10.47,4.96-19.85,11.31-28.78,18.65-7.46,6.13-14.29,12.45-20.87,20.04,0,0,0,0,0,0-.03.05-.05.1-.08.16-.05.09-.11.18-.17.27-.06.09-.13.17-.2.26-.07.09-.14.17-.22.25-.07.08-.15.16-.23.24-.08.08-.15.15-.23.23-.08.07-.15.15-.23.22-.04.04-.08.07-.11.11-.04.04-.08.08-.12.11-.06.05-.12.09-.18.13,0,0,0,0,.01.01-9.85,15.43-7.15,27.51,5.72,39.44,1.85.09,3.75-.14,5.54-.7-13.32-9.43-18.73-21.82-9.75-36.79,0,0,.01.01.01.02,0-.02.02-.05.03-.07.02-.05.04-.11.06-.16.02-.05.04-.1.06-.15.05-.09.11-.18.17-.26.03-.05.07-.09.1-.13.04-.05.07-.09.11-.13.16-.18.32-.35.49-.52.09-.08.17-.17.26-.25.04-.04.09-.08.13-.12.04-.04.07-.07.11-.11.08-.08.18-.15.27-.22-.01-.01-.02-.02-.03-.03,2.29-1.69,4.03-3.55,5.92-5.51,13.3-13.79,32.51-28.79,50.4-35.8,1.79-.7,3.61-1.22,5.46-1.62.05-.07.09-.14.14-.2.08-.11.17-.22.25-.33.09-.11.17-.21.26-.31.07-.08.14-.16.21-.24.07-.08.15-.17.23-.25.08-.08.16-.15.25-.21.09-.06.18-.11.28-.14.03-.01.06-.01.1-.02,6.24-2.95,12.53-5.29,19.15-7.16l8.17-2.31c.48-.49,1.01-1.28,1.38-2.09-7.88,1.7-15.38,3.41-22.86,6.32Z" fill="#979797"/>
    <path d="M89.02,198.19c-.07.04-.14.08-.2.13-.08.07-.16.15-.24.23-.07.08-.15.16-.22.25-.07.09-.15.17-.22.26-.09.1-.17.21-.26.32-.08.11-.17.22-.24.33-.02.03-.03.05-.05.08,4.65-1,9.45-1.17,14.23-.94l6.76.32c.69-.83,1.22-1.51,1.77-2.33-7.33-.22-14.03.6-21.33,1.37Z" fill="#979797"/>
    <path d="M110.56,211.04c-17.37-4.33-35-.74-45.43,14.54-8.38,12.29-6.5,28.82,2.78,39.92.61-.27,1.22-.73,1.31-1.11-2.46-3.34-4.86-6.48-5.75-10.77l2.82,2.25c1.79,1.41,3.85,2.37,5.91,3.4l1.42,2.32,2.69-2.19-2.62-1.38c-1.69-4.46-2.61-8.92-2.77-13.81h10.68s.81,9.34.81,9.34c.64-.27,1.54-1.05,1.5-1.65l-.56-7.69,7.76.08c.43-.45.86-1.03,1.38-1.81l-9.15-.08c-.06-5.63.31-10.86,1.25-16.29.09-.48.64-1.27,1.08-1.3l9.36-.69.11,8.16c.03,2.04.18,3.8.51,5.91l1.53-2.15-.35-11.96,7.54.27.7-1.58-8.15-.45-.02-11c4.94.5,7.62,3.74,10.05,7.74.38-.22,1.23-1.59.94-2.09-1.03-1.76-2.21-2.87-3.64-4.51,1.78-.01,3.25.6,5.23,1.3.49-.85.86-1.73,1.08-2.72ZM69.13,242.46l-7.23.02c.15-5.62,3.51-10.16,8.68-12.72-.79,4.26-1.57,8.04-1.45,12.7ZM71.35,256.86c-5.37-2.18-9.17-6.9-9.47-12.64l7.18-.05c.34,4.26,1.13,8.23,2.29,12.69ZM70.31,228.01c-2.47,1.27-4.31,2.72-6.52,4.62,1.58-6.75,9.6-15.04,16.21-17.57-3.45,3.24-6.18,6.56-7.77,10.94-.3.83-1.07,1.57-1.92,2.01ZM81.61,242.41l-10.56.07c-.36-4.71.37-9.45,1.9-14.04,3.21-1.62,6.55-2.39,10.09-3.08-1.03,5.86-1.6,11.21-1.43,17.05ZM83.91,222.46c-.06.34-.58,1.09-.85,1.27l-9,2.16c2.5-6.41,7.99-11.64,14.97-13.4-2.5,3.18-4.42,6.1-5.12,9.97ZM95.11,222.32l-9.64.86c.58-2.87,1.78-5.53,3.43-7.9,1.66-1.86,3.36-3.38,6.22-3.89v10.93Z" fill="#2b3784"/>
    <path d="M125.74,218.76c-.29.82-.46,1.41-.47,1.99,3.79,3.19,6.67,7.24,8.06,12.15-2.5-2.13-4.77-3.88-7.59-5.26-.85-.42-1.38-1.03-1.94-2.01-.6.78-1.02,1.85-.62,2.77,1.91,4.45,2.49,9.17,2.66,14.01l-9.38.03c-.37.56-.66,1.1-.95,1.75l10.32.02c.03,4.34-.44,8.46-1.4,12.64-.29,1-.85,1.74-1.84,2.03-3.17.91-6.23,1.59-9.59,2.15.46-4.56.95-8.67.96-13.28-1.49.88-1.8,2.22-1.85,3.73-.1,3.39-.46,6.43-.94,9.97l-7.54.43c-.5.3-1.11.99-1.58,1.72,2.91.19,5.49-.13,8.61-.37-1.53,6.36-4.03,13.04-11.74,13.36l-.43-8.9c-.69.4-1.69,1.27-1.67,1.8l.31,7.12c-2.03-.48-3.75-1.31-5.57-2.32l-3.52,2.94c5.73,1.69,11.48,1.56,17.3.82,11.09-1.43,22.73-7.98,28.1-17.91,7.4-13.71,4.29-31.67-7.7-41.38ZM125.62,229.69c2.23.83,4.07,2.29,5.76,3.91,2.25,2.4,3.7,5.1,3.91,8.78l-7.62.09c-.25-4.34-.92-8.23-2.05-12.78ZM135.33,244.22c-.03,5.69-3.78,10.55-9.11,12.74.81-4.49,1.29-8.32,1.36-12.73h7.75ZM112.65,262.86l10.19-2.11c-1.09,3.01-2.81,5.4-4.77,7.79-3.04,3.16-6.61,5.88-11.39,6.85,4.23-5.2,4.05-6.49,5.97-12.53ZM126.65,266.11c-3.18,2.95-6.64,5.46-10.86,6.89,4.39-3.92,7.63-8.15,9.39-13.61,3.31-1.28,5.88-3.35,8.73-5.71-1.12,4.99-3.92,8.95-7.26,12.43Z" fill="#2b3784"/>
    <path d="M115.76,298.7c-7.11-2.45-13.93-4.67-20.66-7.85l-16-7.56,1.32-1.78c9.81,5.19,19.85,9.42,30.24,13.35l5.51,2.09-.4,1.76Z" fill="url(#linear-gradient5)"/>
    <path d="M128.82,298.1l-.72-1.75c9.58-4.83,18.14-11.19,25.35-19.17,3.75-4.15,6.51-8.55,8.98-13.52-1.17,4.9-3.62,9.06-6.57,12.99-7,9.12-16.65,16.15-27.04,21.46Z" fill="#979797"/>
    <path d="M45.77,278.01l-2.2.82-3.37-5.03c-3.75-5.6-6.28-11.7-7.42-18.61l2.84,2.21c1.56,7.71,5.46,14.29,10.15,20.61Z" fill="#979797"/>
    <path d="M126.31,296.2c-1.27-1.51-3.17-1.95-4.92-1.75-1.62.18-3.08,1.02-4.03,2.65-1.32,2.29-.38,5.4,1.6,6.78,2.34,1.63,5.26,1.29,7.09-.66,1.79-1.91,2.09-4.83.26-7.02ZM122.18,303.54c-2.16,0-3.91-1.75-3.91-3.91s1.75-3.91,3.91-3.91,3.91,1.75,3.91,3.91-1.75,3.91-3.91,3.91Z" fill="url(#linear-gradient6)"/>
    <path d="M126.09,299.63c0,2.16-1.75,3.91-3.91,3.91s-3.91-1.75-3.91-3.91,1.75-3.91,3.91-3.91,3.91,1.75,3.91,3.91Z" fill="url(#linear-gradient7)"/>
    <path d="M149.77,182.68c-7.54.21-14.43,1.2-21.73,2.44l-.53-1.36c6.96-1.13,13.8-1.92,20.96-1.97.68,0,1.31.29,1.3.88Z" fill="#979797"/>
    <path d="M34.35,248.81c-3.59-1.9-1.9-5.94-2.4-10.14l2.48-2.42-.08,12.55Z" fill="#979797"/>
    <path d="M145.7,305.83c-1.92.25-16.19-2.7-17.4-3.79-.16-.15.21-1.04.53-.95l16.87,4.75Z" fill="url(#linear-gradient8)"/>
    <polygon points="57.43 272.43 55.8 273.2 54.64 270.8 57.43 272.43"/>
  </g>
  <g>
    <g>
      <path d="M198.45,222.82c.24-2.65.29-5.18,0-7.88h.35c1.12,5.77,5.18,8.88,9.77,8.88,4,0,7.3-2.24,7.3-6.47,0-9.47-16.71-12.83-16.71-24,0-7.24,6.53-10.59,13.18-10.59,3.65,0,6.24,1,8.12,2.18-.23,2.18-.35,5.24,0,7.24h-.35c-.94-4.94-3.88-6.94-7.47-6.94-4.24,0-6.41,2.59-6.41,5.59,0,8.3,16.77,11.83,16.77,23.59,0,7.24-6.24,11.88-14.06,11.88-5.12,0-8.53-2-10.47-3.47Z" fill="url(#linear-gradient9)"/>
      <path d="M258.52,215.93c-.35,3.24-.35,6.41,0,9.77-5-.35-9.71-.35-13.59-.35-3.65,0-10.88.06-14.88.35v-.35c3.35-.71,4.77-1.82,4.94-5.24.29-5.47.29-8.94.29-15.59,0-5.88,0-10.18-.35-15.47-.18-3-1.53-4.71-4.94-5.35v-.35c4.12.18,9.35.35,14.94.35,5.18,0,10-.18,13.36-.41-.29,2.24-.35,6,0,9h-.35c-.94-5-3.53-6.59-9-6.59-1.53,0-3.41.06-6.12.29-.29,8.06-.35,11.71-.35,16.59,1.47.06,3.29,0,6.12-.12,4.41-.18,5.06-1.76,5.65-4.47l.35.06c-.18,1.88-.35,3.82-.35,5.53s.12,3.71.35,5.53l-.35.06c-.76-3.12-1.18-4.24-5.65-4.41-2.06-.12-4.12-.18-6.12-.18,0,6.53.06,11.12.23,13.71.24,4.24,3.82,4.53,7.18,4.53,5,0,7.12-1.47,8.3-6.94l.35.06Z" fill="url(#linear-gradient10)"/>
      <path d="M306.88,225.35v.35c-2-.18-5.77-.35-8.35-.35s-6.71.12-9.59.35v-.35c3.59-.35,5.18-2.06,3.88-5.41-.65-1.76-1.53-3.77-2.47-6-2.41-.06-5.47-.12-8.35-.12s-5.65.06-7.82.18c-.77,1.94-1.47,3.88-2.24,5.82-1.29,3.47-.35,5.12,3.35,5.53v.35c-1.94-.18-4.47-.35-6.35-.35-2.29,0-4.41.18-6.06.35v-.35c1.88-.29,3.71-2,5.29-5.53,4.88-11.06,12.12-27.89,15.71-37.12h.12c6,13.41,9.59,21,17.3,37.18,1.59,3.35,2.71,4.94,5.59,5.47ZM289.06,210.93c-2.41-5.53-5.24-11.47-7.3-15.83-2,4.82-4.18,10.24-6.35,15.83,2,.12,4.59.24,6.53.24,2.06,0,4.77-.12,7.12-.24Z" fill="url(#linear-gradient11)"/>
      <path d="M354.83,183.34v.35c-2.94.71-4.53,1.88-4.71,5.18-.23,4.59-.29,8.59-.29,14.59,0,7.24,0,15.41.06,22.83h-.12c-10.06-9.94-20.36-19.71-31.01-29.24v7c0,6.53.12,10.94.35,16,.18,3.41,1.76,4.59,4.71,5.3v.35c-3-.24-5.18-.35-7.06-.35s-3.71.12-6.65.35v-.35c2.94-.71,4.53-1.88,4.71-5.18.24-5.12.29-9.53.29-16.06s0-14.65-.06-21.42h.12c10.35,10.18,20.71,19.89,31.01,29.24v-8.94c0-5.82-.12-9.59-.35-14.06-.18-3.35-1.76-4.53-4.71-5.24v-.35c3,.24,5,.35,6.94.35s3.82-.12,6.77-.35Z" fill="url(#linear-gradient12)"/>
      <path d="M359.72,204.64c0-12.41,9.35-21.95,22.59-21.95s22.83,9.12,22.83,21.71-9.18,21.89-22.48,21.89-22.94-9.12-22.94-21.65ZM397.38,205.87c0-10.41-5.41-20.77-15.53-20.77-8.71,0-14.35,7.77-14.35,17.94s5.53,20.83,15.65,20.83c8.65,0,14.24-7.59,14.24-18Z" fill="url(#linear-gradient13)"/>
      <path d="M452.8,225.35v.35c-19.18,0-15.53-3.53-25.12-17.41h-1.06c-1.29,0-2.94-.06-4.24-.18.06,4.47.12,7.35.41,12.18.18,2.94,1.41,4.35,4.88,5.06v.35c-2.94-.18-6.18-.35-8.88-.35s-5.88.18-8.88.35v-.35c3.41-.71,4.77-2.12,4.94-5.12.35-5.3.35-9.59.35-15.71,0-2.29,0-11.94-.29-16-.24-3.24-1.53-4.18-4.94-4.88v-.35c2.82.24,5.82.35,8.06.35,3.06,0,6-.29,8.35-.29,9.65,0,14.94,5,14.94,11.83,0,4.41-2.18,8.47-6.12,10.88,6.82,12,10.71,19.06,17.59,19.3ZM434.15,196.11c0-5.41-2.82-10.24-8.77-10.24-.88,0-1.71.06-2.65.24-.35,8.47-.35,12.65-.35,18.42v1.24c.88.29,1.88.47,3.24.47,6.94,0,8.53-6,8.53-10.12Z" fill="url(#linear-gradient14)"/>
      <path d="M496.4,225.35v.35c-2-.18-5.77-.35-8.35-.35s-6.71.12-9.59.35v-.35c3.59-.35,5.18-2.06,3.88-5.41-.65-1.76-1.53-3.77-2.47-6-2.41-.06-5.47-.12-8.35-.12s-5.65.06-7.82.18c-.77,1.94-1.47,3.88-2.24,5.82-1.29,3.47-.35,5.12,3.35,5.53v.35c-1.94-.18-4.47-.35-6.35-.35-2.29,0-4.41.18-6.06.35v-.35c1.88-.29,3.71-2,5.29-5.53,4.88-11.06,12.12-27.89,15.71-37.12h.12c6,13.41,9.59,21,17.3,37.18,1.59,3.35,2.71,4.94,5.59,5.47ZM478.57,210.93c-2.41-5.53-5.24-11.47-7.3-15.83-2,4.82-4.18,10.24-6.35,15.83,2,.12,4.59.24,6.53.24,2.06,0,4.77-.12,7.12-.24Z" fill="url(#linear-gradient15)"/>
    </g>
    <g>
      <path d="M267.26,263.89v.35c-2.82.53-4.06,1.71-4.35,4.82-.41,3.53-.47,7.06-.12,12.53-3.12,1.12-8.65,2.47-14.24,2.47-14.24,0-23.59-9.24-23.59-21.77s9.88-21.77,23.59-21.77c5.18,0,9.88,1.24,13.12,2.47-.47,3.12-.41,6,0,9.06h-.35c-2.06-6.65-6.77-9.06-12.53-9.06-10.59,0-15.89,8.3-15.89,17.83s4.47,20.77,16.53,20.77c2,0,4.06-.35,5.94-1.06,0-5.3,0-7.77-.41-11.47-.29-3.12-1.71-4.18-5.53-4.82v-.35c3.24.23,6.18.35,9.12.35s6.18-.12,8.71-.35Z" fill="url(#linear-gradient16)"/>
      <path d="M299.68,273.78c-.35,3.24-.35,6.41,0,9.77-5-.35-9.71-.41-13.59-.41-3.65,0-10.94.06-14.94.35v-.35c3.35-.71,4.77-1.82,4.94-5.24.29-5.47.29-8.94.29-15.59,0-6.12,0-10.41-.35-15.71-.18-3-1.53-4.41-4.94-5.12v-.35c3,.18,6.24.35,8.88.35s5.94-.18,8.88-.35v.35c-3.47.71-4.71,2.12-4.88,5.06-.35,6-.41,8.94-.41,15.77s.06,11.18.23,13.77c.24,4.24,3.82,4.53,7.24,4.53,5,0,7.12-1.41,8.3-6.88l.35.06Z" fill="url(#linear-gradient17)"/>
      <path d="M386.46,271.48c0,7.12-6.06,12-14.83,12-2.65,0-6.18-.35-8.82-.35-2.24,0-7.18.24-8.65.35v-.35c2.88-.59,4.77-1.65,4.94-5.06.23-4.71.35-8.88.35-15.77,0-5.47-.06-10.3-.35-15.65-.18-3.47-2.06-4.59-4.94-5.18v-.35c2.18.18,6.29.29,8.06.29,2.59,0,5.24-.29,8.3-.29,7.35,0,13.47,2.94,13.47,9.83,0,4.82-3.06,8.65-8.41,10.06,7.24.71,10.88,4.94,10.88,10.47ZM369.17,243.12c-.76,0-1.47.06-2.35.29-.23,7.59-.29,11.88-.29,16.71,1.06.18,1.94.23,2.71.23,5.29,0,7.83-4.35,7.83-8.71s-2.71-8.53-7.88-8.53ZM379.52,272.54c0-6.53-4.06-10.18-10.18-10.18-.82,0-1.82.06-2.82.24,0,9,0,11.12.12,13.88.23,3.77,2.71,5.06,5.35,5.06,5,0,7.53-3.94,7.53-9Z" fill="url(#linear-gradient18)"/>
      <path d="M433.06,283.13v.35c-2-.18-5.77-.35-8.35-.35s-6.71.12-9.59.35v-.35c3.59-.35,5.18-2.06,3.88-5.41-.65-1.76-1.53-3.77-2.47-6-2.41-.06-5.47-.12-8.35-.12s-5.65.06-7.82.18c-.77,1.94-1.47,3.88-2.24,5.82-1.29,3.47-.35,5.12,3.35,5.53v.35c-1.94-.18-4.47-.35-6.35-.35-2.29,0-4.41.18-6.06.35v-.35c1.88-.29,3.71-2,5.29-5.53,4.88-11.06,12.12-27.89,15.71-37.12h.12c6,13.41,9.59,21,17.3,37.18,1.59,3.35,2.71,4.94,5.59,5.47ZM415.23,268.72c-2.41-5.53-5.24-11.47-7.3-15.83-2,4.82-4.18,10.24-6.35,15.83,2,.12,4.59.24,6.53.24,2.06,0,4.77-.12,7.12-.24Z" fill="url(#linear-gradient19)"/>
      <path d="M464.89,273.78c-.35,3.24-.35,6.41,0,9.77-5-.35-9.71-.41-13.59-.41-3.65,0-10.94.06-14.94.35v-.35c3.35-.71,4.77-1.82,4.94-5.24.29-5.47.29-8.94.29-15.59,0-6.12,0-10.41-.35-15.71-.18-3-1.53-4.41-4.94-5.12v-.35c3,.18,6.24.35,8.88.35s5.94-.18,8.88-.35v.35c-3.47.71-4.71,2.12-4.88,5.06-.35,6-.41,8.94-.41,15.77s.06,11.18.23,13.77c.24,4.24,3.82,4.53,7.24,4.53,5,0,7.12-1.41,8.3-6.88l.35.06Z" fill="url(#linear-gradient20)"/>
    </g>
    <path d="M348.4,272.28s0,0,0,0c-.06.17-.1.34-.13.51-.02.09-.02.19-.03.29,1.04,1.35,2.64,3.42,1.27,5.07-2.4,2.44-13.39-2.7-16.76-4.12-.71-.3-2.09,1.29-1.93,2.16,2.97,1.85,6.44,2.88,9.8,3.81,2.63.71,5.07,1.44,7.77,1.04,1.3-.2,2.82-1.16,3.15-2.1.74-2.27-.86-6.13-3.12-6.66Z" fill="url(#linear-gradient21)"/>
    <path d="M340.73,262.61l-7.05.03c-.2,0-.83.1-.8.25l.11.58c.03.16.59.24.89.24l6.86.11c.07,3.81-.47,7.23-1.81,10.56l-4.46-.92,10.11,4.24,3.53-4.7c.02-.17.05-.34.1-.5.02-.08.05-.16.08-.24,0,0,0-.02.01-.02,3.21-7.93,2.36-17.57-3.79-24.16-9.29-9.97-25.28-10.45-35.25-1.26-.54.48-4.66,5.51-4.26,6.06l.69.99,3.23-5.07,4.93,2.5-1.65,6.06c-.25.92.27,2.51.71,3.23.49-3.14,1.2-6.17,2.36-8.87l11.09,1.79.71,8.67c.71-3.08.54-5.89.66-8.74,3.74-.41,7.07-1.06,10.87-2.03,1.48,3.6,2.22,7.3,2.13,11.2ZM314.6,249.86c-1.31-.34-2.84-1.05-4.19-1.96,2.53-2.64,5.48-4.42,9.28-5.07-2.09,2.3-3.49,4.04-5.08,7.03ZM316.03,250.43c1.57-4.55,5.04-7.68,10.13-8.98l.27,10.58c-3.62.03-6.81-.48-10.39-1.6ZM343.94,276.59c-1.28-.3-2.73-.89-3.83-1.53,1.3-3.98,1.86-7.02,2.02-11.23l6.82-.07c-.07,5.01-2.12,8.71-5.01,12.82ZM348.92,262.58h-6.72c-.38-4.32-1-7.82-2.51-11.57l3.76-1.89c3.39,3.56,5.18,8.3,5.48,13.46ZM342.45,247.84c-.72,1.07-2.26,1.86-3.3,1.6l-4.28-6.07c2.91.99,5.18,2.5,7.58,4.48ZM327.7,252.11l-.14-10.56c4.74.79,8.39,3.95,10.2,8.73-3.26,1.09-6.34,1.61-10.05,1.84Z" fill="url(#linear-gradient22)"/>
    <path d="M333.81,271.28c-3.47,4.03-2.9,1.76-5.52,7.18-1.04-1.13-1.21-2.52-1.32-4.43l-4.28-2.4-2.96,8.52c-.56,0-2.31-1.08-2.23-1.87l.92-9.04c-2.32-1.81-4.91-3.28-7-5.35-.9-.9-1.33-1.18-2.3-1.82-2.74-1.82-10.3-9.14-7.95-13.07,1.15-1.91,4.04-2.15,5.97-.73l-3.09.89c-3.77,1.09,1.71,6.51,3.21,7.79,5.97,5.05,6.62,5.68,13.94,9.13l8.41-3.83c.36-.17,1.13-.2,1.47-.13.4.08.99,1.38.61,1.67l-6.4,5.02c.86,1.05,2.36,2.46,3.41,2.82l5.09-.35Z" fill="url(#linear-gradient23)"/>
    <path d="M310.8,278.18c2.83,2.52,5.45,3.89,9.17,5.04l-1.84-2.51c3.16.51,4.54,3.71,8.82,3.42l.48-5.28c1.42,1.47.78,3.08.89,5.06,3.06.08,5.65-2.3,8.01-4.25.27.01.73.76.53,1.02l-.97,1.21c1.82.31,2.57-1.96,4.68-.7-7.66,5.34-18.43,5.52-26.67.87-6.4-3.61-10.56-9.73-11.53-16.92-.36-2.65-.81-5.21,1-7.71l.36,5.58,3.71.21-3.75.46c.19,5.07,2.37,9.75,6.18,13.2l4.11-1.74c-1.21-3.4-1.93-6.04-1.97-9.27,1.43.64,1.89,6.38,2.93,8.44l1.78.3-.69,3.35-1.76-1.6-3.46,1.82Z" fill="url(#linear-gradient24)"/>
    <path d="M324.68,262.88c-1.75,1.5-4.48,1.18-6.7-.04,2.13-.27,4.04-.31,6.7.04Z" fill="url(#linear-gradient25)"/>
    <rect x="221.35" y="292.73" width="248.45" height="3.28" rx="1.64" ry="1.64"/>
    <path d="M432.32,311.51c-.64-.03-1.33-1.46-.86-1.72.92-.49,1.98-.82,2.73-1.54.27-.25.25-1.27.03-1.55-.19-.25-.77-.54-1.08-.48-1.98.33-2.88,2.05-3.11,4.06-.13,1.1-1.91,1.78-2.63,1.04-.89-.92-.82-2.92-.06-3.9.53-.68,1.55-.07,2.16.43.2-.02.58-.7.49-.99-.09-.29-.85-.63-1.16-.6-1.96.17-3.19,1.94-3.15,3.89.02.68-.39,1.42-1.18,1.26-.42-1.31.79-4.06-.13-4.93-.99-.52-1.98.58-2.65,1.21l-.52-1.53-1.78.96c-.34-.27-.93-.82-1.34-.82-.36,0-1.16.27-1.46.49-2.39,1.77-.8,5.33-2.82,4.52l.89-8.67,1.21-.51c.14-.05.42-.23.52-.3.09-.07-.42-.37-.58-.38-1.11-.12-2.39.99-2.53,2.34l-.65,6.03c-.1.88-.4,1.63-1.47,1.61-.04-.78-.11-1.67,0-2.45l.76-6.29,1.16-1.03c-1.19-.4-2.3.57-2.43,1.72l-.75,6.74c-.06.59.03,1.81.41,2.15.74.42,1.69-.39,2.17-.93.2.34.5.9.75,1.07.54.37,1.7-.95,2.04-.72.14.09.48.43.63.51,1.23.68,2.92-.19,3.45-1.38-.83.39-1.59.76-2.2.7-.47-.04-1.16-1.24-.89-1.67.76-.59,2.09-.69,2.67-1.41.45-.55.59-.9,1.33-1.06l-.25,4.67c-.02.25.63.42.79.3.15-.13.42-.53.43-.75l.12-1.76c.08-1.22.66-2.4,2.13-2.46l-.25,3.51c-.03.47.06,1.65.62,1.59.63-.07,1.34-.63,1.82-.97.42.46,1.19,1.13,1.89,1.01.97-.16,1.74-.66,2.56-1.2.42.88,1.41,1.44,2.48,1.05.75-.26,1.53-.92,1.89-1.53-1.04.37-1.66.68-2.2.65ZM431.9,307.23c.13-.25.89-.26,1.1-.09.23.21.32.98.08,1.21-.45.41-1.04.67-1.7.8.09-.65.29-1.46.52-1.91ZM417.74,308.6l-1.38.57c0-.72.13-1.44.65-2.02.21-.24.97.07,1.08.33.11.27-.04,1-.34,1.12Z" fill="url(#linear-gradient26)"/>
    <path d="M281.91,306.46c-.16-.16-.88-.2-.9.03-.13,1.57.43,2.31-1.21,4.45l-1.1-4.2c-.05-.18-.29-.52-.42-.53-1.32-.08.18.84-2.34.24-1.88-.44-3.44,1.62-3.41,3.39.02.93-.28,1.58-1.23,1.72,0-1.66.16-3.13.56-4.87-.81-.37-2.19-.45-3.19.12-2.02,1.15-2.28,5.02-1.24,5.56,1.04.54,2.08-.84,2.49-1.49l.6,1.72,2.04-.95,1.08.82c1.31.17,2.51-.47,3.15-1.48-1.14.41-2.11,1.1-2.75.05-.57-.93-.68-2.79.22-3.72.54-.54,1.66.09,1.99.49l1.32-.32,1.16,4.65c.44,1.73-1.32,3.38-2.94,3.26-.21-.02-.59.35-.59.54-.03.76,2.36.54,3.39-1.27l3.38-6.02c.31-.54.31-1.77-.05-2.17ZM268.52,311.39c-.62-.48-.81-4.16.91-4.4.31-.04,1.06.32,1.04.67-.08,1.21-.35,3.11-1.95,3.73Z" fill="url(#linear-gradient27)"/>
    <path d="M406.96,311.42c-.46-.2-.94-1.37-.55-1.64l2.37-1.23c.4-.2.54-1.21.38-1.6-.14-.34-.87-.84-1.3-.74-1.85.44-2.76,2.25-2.96,4.2-.1,1.03-2.1,1.61-2.76.71-.7-.96-.66-2.73,0-3.68.57-.83,1.66-.1,2.27.44.25-.17.58-.85.43-1.1-.14-.25-.86-.52-1.2-.48-1.84.17-3.06,1.83-3.08,3.64,0,.76-.8,1.71-1.54,1.32-.54-.29-1.16-1.51-1.06-2.1.25-1.56,2.03-1.14,2.34-2.38.06-.24-.65-.73-.82-.54l-1.86,2.11c-.31-.67-.64-1.74-1.15-1.92-.85-.31-1.71.5-1.99,1.16l1.39-.23.83,2.18c-.98,1.39-2.37,1.54-2.34,2.9.02.46.48.91.98.91,0-1.32.59-2.45,1.59-2.98.42.78.8,1.78,1.42,2.03.71.28,1.58-.6,2.17-1.02.43.64,1.2,1.32,2.1,1.12.87-.2,1.67-.67,2.45-1.14.46.91,1.4,1.41,2.4,1.04.74-.28,1.69-.92,1.8-1.46-1.02.38-1.72.72-2.31.47ZM407.01,307.06c.22-.17.88.08.96.33.07.25,0,.99-.24,1.1l-1.38.61c-.12-.76.12-1.62.66-2.04Z" fill="url(#linear-gradient28)"/>
    <path d="M318.43,307.82c-.6-.55-1.51-1.25-2.24-.57-.4,1.29,3.43,1.71,2.51,3.8-.71,1.63-2.85,1.9-4.12.81-.52.23-1.21.54-1.71.62-.33.06-.6-1.05-.62-1.23l-1.76,1.18c-.15.1-.65.08-.8-.02s-.4-.64-.38-.83l.26-4.12-2.05.31c-2.33.36-.16,5.51-2.52,4.52l.34-4.85-1.06-.06,1.8-1.33.7,1.3c.37-.44,1.2-1.21,1.7-1.1.11.02.4.42.49.49.33.26,1.48-.82,1.7-.31.54,1.22-.47,3.09-.03,5.19,3.26-1.08.93-5.88,3.2-5.03l-.32,5.06,1.76-.93c.39.41,1.02,1,1.54,1.14.25.07.95-.31,1.05-.54.42-.92-1.86-1.47-2.45-2.46s.21-1.81.93-2.29c.65-.43,1.96-.35,2.5.25.15.2-.21.82-.43,1.02Z" fill="url(#linear-gradient29)"/>
    <path d="M296.58,301.62c-.92-.46-2.45-.17-3.34.59-2.56,2.23-.2,4.6-3.24,4.95-.75-.99-1.73-1.09-2.72-.54-1.61.88-2.39,2.85-1.85,4.67.35,1.15,1.63,1.5,2.67,1.01,1.77-.84,2.52-2.68,2.17-4.82l1.36-.08-.39,6.87c-.02.34-.29.92-.5,1.15-.54.54-1.11-.19-2.43.4-.14.07-.04.52.17.59,1.65.57,3.55-.67,3.86-2.63.32-2.02.44-4.19.58-6.24l2.12-.58-2.08-.38c.03-1.03-.09-3.83,1.13-4.3,1.14-.43,1.2.48,2.32.18.2-.05.37-.75.18-.85ZM287.73,311.85c-1.31-.18-1.49-2.73-.87-4.22.11-.25.64-.61.89-.63s.77.32.92.57c1.13,2.02.02,4.41-.94,4.28Z" fill="url(#linear-gradient30)"/>
    <path d="M263.21,306.78c-2.38,1.44-.82,3.49-2.73,4.41-.55.26-1.31.42-1.74.19-.45-.25-.82-1.32-.5-1.66.88-.38,2.05-.76,2.73-1.47.36-.37.14-1.54-.23-1.77-.34-.21-1.15-.27-1.56-.08-2.56,1.21-2.9,5-1.54,5.82,1.32.79,2.73-.35,3.69-1.03.13.36.63,1.32,1.06,1.28.65-.08,1.48-.67,2.34-1.23-.08,1.26.15,3.92-1.16,4.44-.37.14-1.28.05-1.63-.2-.38-.28-1.55-.07-1.27.31,1.24,1.69,3.64.56,4.46-.93,1.28-2.34.43-5.27,1.31-8.18-.78-.35-2.23-.5-3.22.1ZM258.57,307.32c.1-.21.71-.37.94-.34.23.03.46.67.34,1.12-.14.56-1.05.87-1.71.95.06-.55.23-1.35.42-1.73ZM263.12,311.55c-.78-.93-.43-3.26.08-4.22.18-.34,1.52-.34,1.75-.02.49,1.46-.25,3.56-1.83,4.24Z" fill="url(#linear-gradient31)"/>
    <path d="M336.3,310.59l-1.89-6.73c-.04-.16-.26-.49-.4-.45-.14.03-.5.28-.6.48l-3.54,6.87c-.3.57-.7.88-1.31,1.55l2.85.05-.73-.76c-.14-.14-.04-.74.05-.93l.72-1.55,2.96-.04.83,3.28,2.51-.08c-.73-.56-1.26-.96-1.46-1.69ZM331.85,308.37l1.51-2.86.83,2.9-2.34-.03Z" fill="url(#linear-gradient32)"/>
    <path d="M244.94,310.63l-1.99-7.1c-.14-.16-.85.1-.98.36l-3.41,6.73c-.35.7-.79,1.06-1.44,1.71l2.96.02-1-.82c.19-.59.51-1.92,1.1-2.26.65-.37,2.14-.27,2.81-.05l.93,3.09c.68.07,1.76.03,2.39-.07-.64-.53-1.19-.89-1.38-1.61ZM240.46,308.37l1.49-2.79.93,2.81-2.41-.03Z" fill="url(#linear-gradient33)"/>
    <path d="M386.04,301.65c-.68-.52-2.3-.27-3.1.42-1.29,1.12-1.81,2.6-1.81,4.37l-1.34.94c-.74-.99-1.99-1.37-3.13-.68-1.29.77-1.89,2.12-1.89,3.69,0,.77.44,1.66,1.07,1.97.6.28,1.53.15,2.13-.21,1.72-1.03,2.08-2.9,1.93-4.74.53.04.96.03,1.06.18.08.11.1.4.09.58l-.4,6.2c-.02.33-.33.93-.56,1.14-.24.21-3.41-.08-2.39.69,1.51,1.16,3.41-.22,3.91-1.91.64-2.17.55-4.51.76-6.77.79-.18,1.25-.27,1.96-.6l-1.86-.3c-.09-1.03-.03-2.54.39-3.6.62-1.54,2.22-.17,3.07-.55.19-.08.31-.65.13-.8ZM377.48,311.84c-.27.07-.87-.28-1-.54-.86-1.79-.37-4.33.81-4.31.26,0,.81.32.94.59.76,1.49.57,3.94-.75,4.27Z" fill="url(#linear-gradient34)"/>
    <path d="M389.47,311.58c2.28.25,2.92.49,4.39-1.07.07.55-.08,1.33-.42,1.85h-6.2c.21-.34.85-.83.87-1.16l.41-6.61-1.25-.92,6.3-.15-.31,1.86-.64-1.14-2.61-.02-.26,3.19,3.3.49-3.32.41-.25,3.27Z" fill="url(#linear-gradient35)"/>
    <path d="M346.27,308.3l-2.7.06-.24,3.11,1.24.86-3.54.02.98-.85.4-6.64c.02-.35-.65-.78-1.16-1.23l6.24-.13-.45,1.99-.49-1.2c-.77-.1-1.79-.11-2.63.04-.16,1.22-.22,2.15-.24,3.3l2.49.12c.08,0,.38.1.45.12.1.03-.24.44-.35.44Z" fill="url(#linear-gradient36)"/>
    <path d="M302.77,312.27l-3.67.05,1.14-.81.39-7.19c-.76-.1-1.69-.14-2.27.2-.29.17-.55.8-.95,1.28l.17-2.23h7.59c-.01.63-.11,1.25-.4,2.01l-.51-1.2c-.55-.11-1.4-.15-2.22-.1l-.54,7.27,1.28.73Z" fill="url(#linear-gradient37)"/>
    <path d="M256.53,310.1c.09.7-.13,1.65-.53,2.28l-6.08-.04c.35-.42.87-.9.88-1.21l.31-5.72c.05-.9-.33-1.09-1.15-1.77l3.63-.06-1.07.92-.36,7.06c2.64.15,2.96.51,4.37-1.47Z" fill="url(#linear-gradient38)"/>
    <path d="M363.25,311.15c.01.68-1.34,1.37-1.98,1.29-.28-.04-.63-.78-.76-1.08l-1.62,1.03c-.17.11-.63.13-.79.07-.21-.08-.57-.66-.55-.93l.39-4.16-.87.02c.41-.59.93-.89,1.96-1.09.29,1.81-.46,3.04-.14,5.23,3.45-.94.87-5.42,3.37-5.13l-.4,4.46c-.02.21.13.79.3.73l1.09-.43Z" fill="url(#linear-gradient39)"/>
    <path d="M353.37,311.17c-.41.76-1.22,1.36-2.16,1.23l-.43-1.31c-.8.82-1.57,1.7-2.82,1.21-.06-1.55.03-3.28.15-4.83h-.97c.68-.73,1.19-1.08,2.14-1.1.32,1.8-.63,3.47-.02,5.21,3.35-1.45.59-5.22,3.18-5.16l-.38,5.06,1.32-.32Z" fill="url(#linear-gradient40)"/>
    <path d="M369.09,311.44c-.48-.15-1.02-1.48-.56-1.7l2.45-1.19c.39-.2.56-1.23.37-1.66-.18-.39-1-.75-1.49-.62-1.83.51-2.65,2.04-2.72,3.85-.03,1.03.28,2.13,1.41,2.31,1.15.17,2.43-.57,2.81-1.5-1.05.4-1.65.71-2.28.51ZM369.31,307.03c.49-.26,1.15.59.82,1.12-.31.52-1.02.83-1.6.89-.09-.76.15-1.66.78-2.01Z" fill="url(#linear-gradient41)"/>
    <path d="M357.01,311.23c-.24.62-1.58,1.28-2.26,1.23-1.39-.1-.64-3.87-.62-4.87l-.95-.58c2.39-.73.44-2.5,2.5-2.47l-.23,1.94,1.78.5-1.82.38c-.27,1.24-.35,2.68-.18,4.19l1.79-.32Z" fill="url(#linear-gradient42)"/>
    <path d="M323.24,311.02c-.19.63-1.98,1.91-2.84,1.31-.19-.13-.47-.73-.46-.98l.2-3.93-.91-.37c2.44-.9.36-1.94,2.44-2.61l-.19,2.08,1.63.49-1.71.28c-.29,1.29-.38,2.75-.15,4.32l1.99-.6Z" fill="url(#linear-gradient43)"/>
    <path d="M363.8,308.24c.02-.3.02-.71-.11-.72l-.7-.06c.37-.56,1.02-.97,1.74-1.11l.43,1.17,1.41-1.28c.2-.18.98.11.97.35s-.12.71-.21.94-.8-.04-1.03.03c-2.7.78-.31,5.51-2.77,4.78l.28-4.08Z" fill="url(#linear-gradient44)"/>
    <path d="M322.96,314.07c.98-.96,1.14-2.1.83-2.89-.11-.27.57-.72.81-.63.28.1.71.68.7,1.03-.05,1.33-1.08,2.25-2.34,2.5Z" fill="url(#linear-gradient45)"/>
  </g>
</svg>